<?xml version="1.0" standalone="no"?><!DOCTYPE svg PUBLIC "-//W3C//DTD SVG 1.1//EN" "http://www.w3.org/Graphics/SVG/1.1/DTD/svg11.dtd"><svg t="1708090124485" class="icon" viewBox="0 0 1024 1024" version="1.1" xmlns="http://www.w3.org/2000/svg" p-id="9770" xmlns:xlink="http://www.w3.org/1999/xlink" width="200" height="200"><path d="M634.88 194.56a92.16 92.16 0 0 1 92.16 92.16v32.65536l163.2256-59.62752A61.44 61.44 0 0 1 972.8 317.46048v407.9616a61.44 61.44 0 0 1-82.5344 57.7024L727.04 723.456V747.52a92.16 92.16 0 0 1-92.16 92.16H143.36a92.16 92.16 0 0 1-92.16-92.16V286.72a92.16 92.16 0 0 1 92.16-92.16h491.52z m0 61.44H143.36a30.72 30.72 0 0 0-30.5152 27.136L112.64 286.72v460.8a30.72 30.72 0 0 0 27.136 30.5152L143.36 778.24h491.52a30.72 30.72 0 0 0 30.5152-27.136L665.6 747.52V286.72a30.72 30.72 0 0 0-27.136-30.5152L634.88 256z m276.48 61.46048l-184.32 67.34848v273.23392l184.32 67.3792v-407.9616z" fill="#ffffff" p-id="9771"></path><path d="M194.56 307.2m46.08 0l61.44 0q46.08 0 46.08 46.08l0 0q0 46.08-46.08 46.08l-61.44 0q-46.08 0-46.08-46.08l0 0q0-46.08 46.08-46.08Z" fill="#ffffff" p-id="9772"></path></svg>