<?xml version="1.0" standalone="no"?><!DOCTYPE svg PUBLIC "-//W3C//DTD SVG 1.1//EN" "http://www.w3.org/Graphics/SVG/1.1/DTD/svg11.dtd"><svg t="1708090149842" class="icon" viewBox="0 0 1024 1024" version="1.1" xmlns="http://www.w3.org/2000/svg" p-id="10951" xmlns:xlink="http://www.w3.org/1999/xlink" width="200" height="200"><path d="M471.578947 202.105263v-107.789474h80.842106v107.789474H781.473684a215.578947 215.578947 0 0 1 215.578948 215.578948v404.210526a107.789474 107.789474 0 0 1-107.789474 107.789474h-134.736842a107.789474 107.789474 0 0 1-107.789474-107.789474v-26.947369H377.263158v26.947369a107.789474 107.789474 0 0 1-107.789474 107.789474H134.736842a107.789474 107.789474 0 0 1-107.789474-107.789474v-404.210526a215.578947 215.578947 0 0 1 215.578948-215.578948h229.052631z m444.631579 215.578948a134.736842 134.736842 0 0 0-134.736842-134.736843H242.526316a134.736842 134.736842 0 0 0-134.736842 134.736843v296.421052h808.421052v-296.421052z m0 296.421052h-188.631579 188.631579z m-188.631579 0v107.789474a26.947368 26.947368 0 0 0 26.947369 26.947368h134.736842a26.947368 26.947368 0 0 0 26.947368-26.947368v-107.789474h-188.631579z m-619.789473 0h188.631579-188.631579z m188.631579 0H107.789474v107.789474a26.947368 26.947368 0 0 0 26.947368 26.947368h134.736842a26.947368 26.947368 0 0 0 26.947369-26.947368v-107.789474zM269.473684 431.157895v-80.842106h80.842105v80.842106h80.842106v80.842105h-80.842106v80.842105h-80.842105v-80.842105H188.631579v-80.842105h80.842105z m404.210527 26.947368a53.894737 53.894737 0 1 1 0-107.789474 53.894737 53.894737 0 0 1 0 107.789474z m107.789473 134.736842a53.894737 53.894737 0 1 1 0-107.789473 53.894737 53.894737 0 0 1 0 107.789473z" fill="#ffffff" p-id="10952"></path></svg>