<?xml version="1.0" standalone="no"?><!DOCTYPE svg PUBLIC "-//W3C//DTD SVG 1.1//EN" "http://www.w3.org/Graphics/SVG/1.1/DTD/svg11.dtd"><svg t="1708073440383" class="icon" viewBox="0 0 1024 1024" version="1.1" xmlns="http://www.w3.org/2000/svg" p-id="8854" xmlns:xlink="http://www.w3.org/1999/xlink" width="200" height="200"><path d="M895.362889 128.853858H135.997131c-41.735766 0-75.936241 22.935003-75.936242 71.33372 0 48.39671 34.200476 71.331714 75.936242 71.331714h759.365758c41.735766 0 75.936241-22.935003 75.936241-71.331714-0.103691-48.513111-34.199807-71.333721-75.936241-71.33372z m0 319.491875H135.997131c-41.735766 0-75.936241 22.935003-75.936242 71.33372s34.200476 71.333721 75.936242 71.333721h759.365758c41.735766 0 75.936241-22.935003 75.936241-71.333721-0.103691-48.51378-34.199807-71.333721-75.936241-71.33372z m0 311.626113H135.997131c-41.735766 0-75.936241 22.933665-75.936242 71.331713 0 48.392696 34.200476 71.333721 75.936242 71.333721h759.365758c41.735766 0 75.936241-22.941024 75.936241-71.333721-0.103691-48.519132-34.199807-71.331714-75.936241-71.331713z m0 0" p-id="8855" fill="#ffffff"></path></svg>