<?xml version="1.0" standalone="no"?><!DOCTYPE svg PUBLIC "-//W3C//DTD SVG 1.1//EN" "http://www.w3.org/Graphics/SVG/1.1/DTD/svg11.dtd"><svg t="1708090166520" class="icon" viewBox="0 0 1024 1024" version="1.1" xmlns="http://www.w3.org/2000/svg" p-id="12052" xmlns:xlink="http://www.w3.org/1999/xlink" width="200" height="200"><path d="M917.28 0H106.72a64 64 0 0 0-64 64v896a64 64 0 0 0 64 64h810.56a64 64 0 0 0 64-64V64a64 64 0 0 0-64-64zM242.72 64h538.56v204.16H242.72z m674.56 896H106.72V64h72v204.16a64 64 0 0 0 64 64h538.56a64 64 0 0 0 64-64V64h72z" fill="#ffffff" p-id="12053"></path><path d="M647.52 90.56a29.76 29.76 0 0 0-32 26.56v98.24a32 32 0 0 0 64 0V117.12a29.76 29.76 0 0 0-32-26.56z" fill="#ffffff" p-id="12054"></path></svg>