<?xml version="1.0" standalone="no"?><!DOCTYPE svg PUBLIC "-//W3C//DTD SVG 1.1//EN" "http://www.w3.org/Graphics/SVG/1.1/DTD/svg11.dtd"><svg t="1708096682349" class="icon" viewBox="0 0 1024 1024" version="1.1" xmlns="http://www.w3.org/2000/svg" p-id="26166" xmlns:xlink="http://www.w3.org/1999/xlink" width="200" height="200"><path d="M977.454545 465.454545c-25.6 0-46.545455 20.945455-46.545454 46.545455 0 230.4-188.509091 418.909091-418.909091 418.909091S93.090909 742.4 93.090909 512 281.6 93.090909 512 93.090909c25.6 0 46.545455-20.945455 46.545455-46.545454s-20.945455-46.545455-46.545455-46.545455C230.4 0 0 230.4 0 512s230.4 512 512 512 512-230.4 512-512c0-25.6-20.945455-46.545455-46.545455-46.545455z" fill="#ffffff" p-id="26167"></path><path d="M716.8 139.636364l90.763636 11.636363-328.145454 328.145455c-18.618182 18.618182-18.618182 46.545455 0 65.163636 9.309091 9.309091 20.945455 13.963636 32.581818 13.963637s23.272727-4.654545 32.581818-13.963637L872.727273 216.436364l11.636363 90.763636c2.327273 23.272727 23.272727 41.890909 46.545455 41.890909h6.981818c25.6-2.327273 44.218182-25.6 39.563636-51.2l-18.618181-151.272727C954.181818 104.727273 919.272727 69.818182 877.381818 65.163636L726.109091 46.545455c-25.6-2.327273-48.872727 13.963636-51.2 39.563636-2.327273 25.6 16.290909 48.872727 41.890909 53.527273z" fill="#ffffff" p-id="26168"></path></svg>