<?xml version="1.0" standalone="no"?><!DOCTYPE svg PUBLIC "-//W3C//DTD SVG 1.1//EN" "http://www.w3.org/Graphics/SVG/1.1/DTD/svg11.dtd"><svg t="1708090061087" class="icon" viewBox="0 0 1024 1024" version="1.1" xmlns="http://www.w3.org/2000/svg" p-id="3972" xmlns:xlink="http://www.w3.org/1999/xlink" width="200" height="200"><path d="M0 0h1024v1024H0z" fill="#ffffff" fill-opacity="0" p-id="3973"></path><path d="M744.149333 224a53.290667 53.290667 0 0 1-50.602666-36.437333l-13.482667-40.490667a74.581333 74.581333 0 0 0-70.826667-51.2H414.72c-32.170667 0-60.757333 20.650667-70.826667 51.2l-13.482666 40.448c-7.253333 21.76-27.648 36.48-50.602667 36.48H128a32 32 0 0 0 0 64h55.466667l32.725333 490.666667a160.384 160.384 0 0 0 159.658667 149.333333h272.512a160.426667 160.426667 0 0 0 159.658666-149.333333l32.725334-490.666667H896a32 32 0 1 0 0-64h-151.850667zM404.608 167.296a10.666667 10.666667 0 0 1 10.112-7.296h194.517333a10.666667 10.666667 0 0 1 10.112 7.253333l13.482667 40.490667c1.877333 5.546667 4.181333 11.008 6.869333 16.213333H384.213333c2.688-5.248 4.992-10.666667 6.869334-16.256l13.525333-40.405333z m339.413333 607.104a96.213333 96.213333 0 0 1-95.786666 89.6H375.722667a96.213333 96.213333 0 0 1-95.786667-89.6l-32.426667-486.4h528.896l-32.384 486.4zM629.333333 469.333333v213.333334a32 32 0 1 1-64 0v-213.333334a32 32 0 1 1 64 0z m-170.666666 0v213.333334a32 32 0 1 1-64 0v-213.333334a32 32 0 1 1 64 0z" fill="#ffffff" p-id="3974"></path></svg>