<?xml version="1.0" standalone="no"?><!DOCTYPE svg PUBLIC "-//W3C//DTD SVG 1.1//EN" "http://www.w3.org/Graphics/SVG/1.1/DTD/svg11.dtd"><svg t="1708089910797" class="icon" viewBox="0 0 1024 1024" version="1.1" xmlns="http://www.w3.org/2000/svg" p-id="14094" xmlns:xlink="http://www.w3.org/1999/xlink" width="200" height="200"><path d="M435.73767 653.351702l54.765246 54.664962 195.557712-195.499384-195.557712-195.549526-54.765246 54.723291 101.692998 101.63467L158.029018 473.325716l0 78.324801 379.40165 0L435.73767 653.351702zM783.851765 160.502347 236.296515 160.502347c-43.036122 0-78.266473 35.173046-78.266473 78.149816l0 156.523736 78.266473 0 0-156.523736 547.55525 0 0 547.671907L236.296515 786.32407l0-156.465408-78.266473 0 0 156.465408c0 43.026913 35.231374 78.209168 78.266473 78.209168l547.55525 0c42.976771 0 78.208145-35.182255 78.208145-78.209168l0-547.671907C862.058886 195.675392 826.828535 160.502347 783.851765 160.502347" p-id="14095" fill="#ffffff"></path></svg>