<?xml version="1.0" standalone="no"?><!DOCTYPE svg PUBLIC "-//W3C//DTD SVG 1.1//EN" "http://www.w3.org/Graphics/SVG/1.1/DTD/svg11.dtd"><svg t="1708090200561" class="icon" viewBox="0 0 1024 1024" version="1.1" xmlns="http://www.w3.org/2000/svg" p-id="14822" xmlns:xlink="http://www.w3.org/1999/xlink" width="200" height="200"><path d="M847.462 100.914c11.56 11.56 11.676 30.23 0.347 41.932l-0.347 0.353-66.554 66.554 0.396 14.186 13.607 0.181 66.736-66.736 0.353-0.347c11.585-11.216 30-11.215 41.583 0.003l0.35 0.344 3.68 3.68 1.76 1.796c57.413 59.673 45.73 161.711-22.303 229.745-40.633 40.633-103.845 63.412-157.104 59.523l-38.57 38.569 212.956 212.957c49.402 49.402 49.402 129.497 0 178.898-48.907 48.908-127.897 49.397-177.406 1.468l-1.492-1.468-212.956-212.957-213.352 213.353c-49.401 49.401-129.497 49.401-178.898 0-48.907-48.907-49.396-127.898-1.467-177.407l1.467-1.49L333.6 490.696l-59.225-59.225-103.48-53.983a29.9 29.9 0 0 1-14.781-17.826l-0.142-0.482-54.169-189.89a29.9 29.9 0 0 1 7.285-29.014l0.326-0.331 57.856-57.857a29.9 29.9 0 0 1 29.406-7.592l0.44 0.13 187.121 56.94a29.9 29.9 0 0 1 18.082 15.32l0.22 0.453 49.335 103.835 60.623 60.623 40.025-40.024c-2.804-52.594 19.873-114.152 59.719-153.998 68.034-68.034 170.072-79.716 229.745-22.304l1.795 1.76 3.681 3.682z m32.002 123.223l-51.191 51.19-0.352 0.347a29.9 29.9 0 0 1-20.695 8.411l-0.493-0.002-52.542-0.699-0.494-0.01c-8.534-0.252-16.151-4.07-21.436-10-5.821-5.187-9.613-12.626-9.983-20.999l-0.018-0.494-1.488-53.332a29.9 29.9 0 0 1 8.4-21.625l0.346-0.351 51.19-51.19-0.288-0.129c-35.425-15.443-85.982-4.137-124.474 33.404l-1.42 1.403c-30.904 30.903-47.628 83.056-41.044 119.512l0.207 1.1c2.884 14.77-5.64 29.12-19.44 33.946L162.533 746.335c-26.048 26.048-26.048 68.28 0 94.328 25.787 25.788 67.437 26.045 93.542 0.774l0.786-0.774L691.095 406.43l0.631 0.63c5.807-11.555 18.701-18.381 32.008-15.984l0.439 0.082 1.1 0.207c36.091 6.518 87.567-9.808 118.579-40.121l0.933-0.923 1.402-1.42c37.167-38.107 48.62-88.039 33.86-123.407l-0.455-1.067-0.128-0.289z m-525.27-39.206L196.87 137.06l-32.738 32.737 45.82 160.618 94.89 49.505c0.598 0.312 1.18 0.64 1.747 0.986l0.894-0.893 68.4 68.4 94.328-94.329-59.855-59.853a29.698 29.698 0 0 1-7.144-7.145l-1.401-1.401 0.29-0.292a30.202 30.202 0 0 1-1.266-2.3l-0.215-0.445-46.427-97.716z m294.917 348.05l-94.328 94.329 212.956 212.957c26.048 26.048 68.28 26.048 94.328 0 25.788-25.787 26.046-67.437 0.774-93.541l-0.774-0.787-212.956-212.957zM832.542 769.06c11.677 11.677 11.677 30.608 0 42.285-11.56 11.56-30.23 11.675-41.932 0.347l-0.353-0.347L660.195 681.28c-11.677-11.676-11.677-30.608 0-42.285 11.56-11.56 30.23-11.675 41.932-0.347l0.353 0.347L832.542 769.06z" fill="#ffffff" p-id="14823"></path></svg>