<?xml version="1.0" standalone="no"?><!DOCTYPE svg PUBLIC "-//W3C//DTD SVG 1.1//EN" "http://www.w3.org/Graphics/SVG/1.1/DTD/svg11.dtd"><svg t="1708089871434" class="icon" viewBox="0 0 1024 1024" version="1.1" xmlns="http://www.w3.org/2000/svg" p-id="13089" xmlns:xlink="http://www.w3.org/1999/xlink" width="200" height="200"><path d="M825.433043 358.13287V313.433043C825.433043 140.688696 684.78887 0.133565 512 0.133565c-172.744348 0-313.344 140.55513-313.344 313.344v44.655305A139.976348 139.976348 0 0 0 67.227826 497.619478v380.838957c0 77.022609 62.73113 139.798261 139.798261 139.798261h610.03687c77.022609 0 139.798261-62.775652 139.79826-139.798261v-380.838957a139.976348 139.976348 0 0 0-131.472695-139.486608zM512 68.741565a245.047652 245.047652 0 0 1 244.869565 244.736v44.388174H267.174957V313.433043a245.047652 245.047652 0 0 1 244.825043-244.736z m376.208696 809.71687a71.234783 71.234783 0 0 1-71.145739 71.190261H207.026087a71.234783 71.234783 0 0 1-71.234783-71.190261v-380.838957a71.234783 71.234783 0 0 1 71.234783-71.190261h610.03687a71.234783 71.234783 0 0 1 71.19026 71.190261v380.838957z" fill="#ffffff" p-id="13090"></path><path d="M512 507.458783a133.253565 133.253565 0 0 0-133.075478 133.12c0 61.529043 41.984 113.441391 98.838261 128.623304v93.184a34.281739 34.281739 0 1 0 68.563478 0v-93.184a133.342609 133.342609 0 0 0 98.838261-128.623304c0-73.371826-59.65913-133.12-133.12-133.12z m0 197.676521c-35.57287 0-64.556522-28.93913-64.556522-64.556521a64.645565 64.645565 0 0 1 129.157565 0c0 35.617391-28.93913 64.556522-64.556521 64.556521z" fill="#ffffff" p-id="13091"></path></svg>