<?xml version="1.0" standalone="no"?><!DOCTYPE svg PUBLIC "-//W3C//DTD SVG 1.1//EN" "http://www.w3.org/Graphics/SVG/1.1/DTD/svg11.dtd"><svg t="1735718226951" class="icon" viewBox="0 0 1053 1024" version="1.1" xmlns="http://www.w3.org/2000/svg" p-id="6808" xmlns:xlink="http://www.w3.org/1999/xlink" width="263.25" height="256"><path d="M849.09935368 141.42947916h-202.20073764c-9.28906634 0-17.24800831 3.27079843-23.81141001 9.87780978a32.38090101 32.38090101 0 0 0-9.89961607 23.89863152c0 9.26726151 3.27079843 17.18259238 9.89961607 23.76779962 6.54159614 6.60701208 14.52234368 9.89961534 23.81141001 9.89961534h120.82328116l-279.60962593 279.54421a31.94479498 31.94479498 0 0 0-9.70336752 23.78960518c0 9.5943412 3.20538176 17.61869912 9.5943412 23.98585227 6.38895871 6.49798576 14.43512218 9.70336751 24.09487931 9.70336825 9.48531415 0 17.4660617-3.29260327 23.96404674-9.81239457l279.32615733-279.54420999v120.80147633c0 9.35448227 3.27079843 17.29161942 9.87780979 23.87682596 6.58520652 6.58520652 14.52234368 9.87781052 23.83321556 9.87780979 9.28906634 0 17.24800831-3.27079843 23.81141002-9.87780979 6.60701208-6.58520652 9.89961534-14.52234368 9.89961607-23.8986315v-202.13532173c0-9.24545594-3.27079843-17.29161942-9.89961607-23.87682668A32.42451141 32.42451141 0 0 0 849.09935368 141.42947916zM475.00727343 143.28293101c-45.11520803 4.40467496-88.98751322 17.20439794-129.41457771 37.67959431a371.47544195 371.47544195 0 0 0-178.3675228 195.02678766A369.07685628 369.07685628 0 0 0 141.42947916 512.11992911c0 50.34848539 9.74697864 98.42921698 29.19732408 144.26400109 18.09841626 43.34897768 44.52646458 82.68577601 79.26234014 117.9013687 35.25920307 34.8012915 74.59600215 61.16392461 117.94497979 79.28414569 45.79117299 19.45034616 93.87190532 29.21912963 144.2640011 29.21912963a368.29186501 368.29186501 0 0 0 136.08700572-25.83930487 371.69349532 371.69349532 0 0 0 113.49669376-70.73646026 371.34461006 371.34461006 0 0 0 81.61731469-107.58745144 366.76549284 366.76549284 0 0 0 37.63598318-129.34916177c0.87221277-10.09586316-1.96247891-18.75257565-8.56949099-26.16638529a32.38090101 32.38090101 0 0 0-25.14153436-10.98988148c-8.59129656 0-16.09232696 2.87830207-22.50309049 8.63490692-6.45437465 5.7784097-10.07405833 13.08319228-10.94627111 21.63087846a299.38705178 299.38705178 0 0 1-30.63647547 106.06107927 298.10053782 298.10053782 0 0 1-67.05136135 87.94085819 293.6086421 293.6086421 0 0 1-92.67261212 57.95854212 303.09395624 303.09395624 0 0 1-111.33796701 21.02032871c-41.25566688 0-80.57065966-7.93713643-117.96678465-23.68057814-35.45545163-14.93664488-67.66190964-36.67654892-96.61937551-65.08888171-28.43413835-28.93566031-50.10862646-61.05489757-65.00166095-96.59757068a299.14719359 299.14719359 0 0 1-23.72418851-117.87956314c0-38.42097518 7.02131328-75.57724124 21.04213427-111.42518779A292.40934962 292.40934962 0 0 1 287.74317993 308.02212848a299.51788367 299.51788367 0 0 1 194.00193745-97.62242017c8.61310137-0.91582315 15.80885765-4.51370129 21.58726735-11.01168705 5.80021524-6.36715388 8.72212843-13.88998911 8.72212843-22.43767527 0-6.69423357-1.26470841-12.36361694-3.83773634-17.09537089a25.77388893 25.77388893 0 0 0-10.1176687-10.59738585 51.24250371 51.24250371 0 0 0-11.99292615-4.75356021 52.15832687 52.15832687 0 0 0-11.20793487-1.30831878l0.08722151 0.08722075z" fill="#ffffff" p-id="6809"></path></svg>