<?xml version="1.0" standalone="no"?><!DOCTYPE svg PUBLIC "-//W3C//DTD SVG 1.1//EN" "http://www.w3.org/Graphics/SVG/1.1/DTD/svg11.dtd"><svg t="1708090211773" class="icon" viewBox="0 0 1024 1024" version="1.1" xmlns="http://www.w3.org/2000/svg" p-id="15939" xmlns:xlink="http://www.w3.org/1999/xlink" width="200" height="200"><path d="M972.8 132.608c-16.896-14.336-38.912-19.968-60.416-15.872L294.912 300.544H99.84c-48.64 0-88.064 39.424-88.064 88.064v187.392c0 48.64 39.424 88.064 88.064 88.064h56.832l122.368 240.64c6.144 11.776 17.92 18.432 30.72 18.432 5.12 0 10.24-1.024 15.36-3.584 16.896-8.704 23.552-29.184 14.848-46.08l-106.496-209.408h61.952L908.8 839.68l3.584 1.024c4.096 0.512 8.192 1.024 12.288 1.024 17.408 0 34.304-6.144 47.616-17.408 16.896-14.336 26.112-34.816 26.112-56.32V189.44c0.512-22.016-8.704-42.496-25.6-56.832zM79.872 576V388.608c0-10.752 9.216-19.456 19.456-19.456h175.104v227.84l-175.104-1.024c-10.24-0.512-19.456-9.216-19.456-19.968z m850.944 191.488c0 2.048-1.024 3.584-2.048 4.608-0.512 0.512-2.048 1.536-3.584 1.536l-104.448-29.696V384a34.304 34.304 0 0 0-68.608 0v339.968l-410.624-117.76c0-1.536 1.024-3.072 1.024-4.608v-245.76l582.144-172.544c1.536 0 3.072 0.512 3.584 1.536 1.024 1.024 2.048 2.048 2.048 4.608v578.048z" p-id="15940" fill="#ffffff"></path></svg>